<?xml version="1.0" encoding="utf-8"?>
<!-- Generator: Adobe Illustrator 22.1.0, SVG Export Plug-In . SVG Version: 6.00 Build 0)  -->
<svg version="1.1" xmlns="http://www.w3.org/2000/svg" xmlns:xlink="http://www.w3.org/1999/xlink" x="0px" y="0px"
	 viewBox="0 0 339.7 297.7" style="enable-background:new 0 0 339.7 297.7;" xml:space="preserve">
<style type="text/css">
	.st0{fill:#F2C811;}
	.st1{fill:#0066FF;}
	.st2{fill:#742774;}
	.st3{fill:#0B556A;}
	.st4{fill:#89C402;}
	.st5{clip-path:url(#SVGID_2_);}
	.st6{clip-path:url(#SVGID_4_);}
	.st7{fill:#FFFFFF;filter:url(#Adobe_OpacityMaskFilter);}
	.st8{mask:url(#mask0_8_);}
	.st9{fill:url(#SVGID_5_);}
	.st10{opacity:0.24;}
	.st11{opacity:0.32;}
	.st12{fill:url(#SVGID_6_);}
	.st13{fill:url(#SVGID_7_);}
	.st14{clip-path:url(#SVGID_9_);}
	.st15{clip-path:url(#SVGID_11_);}
	.st16{clip-path:url(#SVGID_13_);}
	.st17{fill:#FFFFFF;filter:url(#Adobe_OpacityMaskFilter_1_);}
	.st18{mask:url(#mask0_7_);}
	.st19{fill:url(#SVGID_14_);}
	.st20{fill:url(#SVGID_15_);}
	.st21{fill:url(#SVGID_16_);}
	.st22{clip-path:url(#SVGID_18_);}
	.st23{fill:#FFFFFF;filter:url(#Adobe_OpacityMaskFilter_2_);}
	.st24{mask:url(#mask0_6_);}
	.st25{fill:url(#SVGID_19_);}
	.st26{opacity:0.2;}
	.st27{opacity:0.18;}
	.st28{fill:url(#SVGID_20_);}
	.st29{fill:url(#SVGID_21_);}
	.st30{clip-path:url(#SVGID_23_);}
	.st31{clip-path:url(#SVGID_25_);}
	.st32{fill:#FFFFFF;filter:url(#Adobe_OpacityMaskFilter_3_);}
	.st33{mask:url(#mask0_5_);}
	.st34{fill:url(#SVGID_26_);}
	.st35{fill:url(#SVGID_27_);}
	.st36{fill:#51C7EA;}
	.st37{fill:#12A9D1;}
	.st38{fill:#97E5FF;}
	.st39{fill:#FFFFFF;}
	.st40{fill:none;stroke:#FFFFFF;stroke-miterlimit:10;}
	.st41{fill:#FFDF57;}
	.st42{fill:#5AFF6A;}
	.st43{fill:none;stroke:#1F1F1F;stroke-miterlimit:10;}
	.st44{fill:#C59FFD;}
	.st45{fill:#A2FCAD;}
	.st46{fill:#446BFD;}
	.st47{fill:#632F72;}
	.st48{opacity:0.8;fill:#632F72;}
	.st49{display:none;}
	.st50{display:inline;}
	.st51{fill:#672F64;stroke:#000000;stroke-miterlimit:10;}
	.st52{fill:#7C3670;stroke:#000000;stroke-miterlimit:10;}
	.st53{fill:#B087AA;stroke:#000000;stroke-miterlimit:10;}
	.st54{fill:#CC8B36;stroke:#000000;stroke-miterlimit:10;}
	.st55{fill:#D19E54;stroke:#000000;stroke-miterlimit:10;}
	.st56{fill:#5F7199;stroke:#000000;stroke-miterlimit:10;}
	.st57{fill:#808CB3;stroke:#000000;stroke-miterlimit:10;}
	.st58{fill:#FFFFFF;stroke:#000000;stroke-miterlimit:10;}
	.st59{fill:#7D3871;stroke:#000000;stroke-miterlimit:10;}
	.st60{fill:#D9BE8A;stroke:#000000;stroke-miterlimit:10;}
	.st61{fill:#8A3E7B;stroke:#000000;stroke-miterlimit:10;}
	.st62{fill:#D6AF70;stroke:#000000;stroke-miterlimit:10;}
	.st63{fill:#396E81;stroke:#000000;stroke-miterlimit:10;}
	.st64{fill:#809AA3;stroke:#000000;stroke-miterlimit:10;}
	.st65{fill:#BC8942;stroke:#000000;stroke-miterlimit:10;}
	.st66{fill:#355F6E;stroke:#000000;stroke-miterlimit:10;}
	.st67{stroke:#000000;stroke-miterlimit:10;}
	.st68{fill:#8EE6FF;}
	.st69{fill:#D59DFF;}
	.st70{fill:#EAD475;}
	.st71{fill:#4CCBED;}
	.st72{fill:#7D3871;}
	.st73{fill:#8A3E7B;}
	.st74{fill:#247689;}
	.st75{fill:#EAA60B;}
	.st76{fill:#EA970B;}
	.st77{fill:#EA880B;}
	.st78{fill:#A03DA5;}
	.st79{fill:#AFE6FF;}
	.st80{fill:#0B799D;}
	.st81{fill:#EAEAEA;}
	.st82{fill:#6A4B16;}
	.st83{fill:#A5A5A5;}
	.st84{fill:#333333;}
</style>
<g id="Layer_1">
</g>
<g id="Layer_4" class="st49">
</g>
<g id="Layer_2">
	<g>
		<circle class="st68" cx="69.2" cy="91.4" r="13.9"/>
		<path d="M69.2,106c-8,0-14.6-6.5-14.6-14.6s6.5-14.6,14.6-14.6c8,0,14.6,6.5,14.6,14.6S77.2,106,69.2,106z M69.2,78.2
			c-7.3,0-13.2,5.9-13.2,13.2s5.9,13.2,13.2,13.2c7.3,0,13.2-5.9,13.2-13.2S76.5,78.2,69.2,78.2z"/>
		<circle class="st69" cx="83.1" cy="113.1" r="19.9"/>
		<path d="M83.1,133.8c-11.4,0-20.6-9.2-20.6-20.6c0-11.4,9.2-20.6,20.6-20.6s20.6,9.2,20.6,20.6C103.7,124.5,94.5,133.8,83.1,133.8
			z M83.1,93.9c-10.6,0-19.2,8.6-19.2,19.2c0,10.6,8.6,19.2,19.2,19.2s19.2-8.6,19.2-19.2C102.3,102.5,93.7,93.9,83.1,93.9z"/>
		<circle class="st70" cx="20.7" cy="192.3" r="18.4"/>
		<path d="M20.7,211.4c-10.5,0-19.1-8.6-19.1-19.1s8.6-19.1,19.1-19.1s19.1,8.6,19.1,19.1S31.2,211.4,20.7,211.4z M20.7,174.7
			c-9.7,0-17.7,7.9-17.7,17.7c0,9.7,7.9,17.7,17.7,17.7s17.7-7.9,17.7-17.7C38.3,182.6,30.4,174.7,20.7,174.7z"/>
		<path d="M63.5,98.2c-0.9,0-1.9-0.6-2.7-1.5c-0.8-0.9-2.2-3-1.8-6.5c0.4-3.7,3-5.6,4.6-6.3c0.4-0.2,0.9-0.1,1.3,0.2
			c0.4,0.3,0.5,0.8,0.3,1.2l0,0c-0.9,2.6,1.4,5.1,2.8,6.4c0.4,0.3,0.5,0.8,0.4,1.3c-0.2,0.5-0.6,0.8-1.1,0.8c-1.7,0.1-2,1.1-2.3,2.5
			C64.7,97.1,64.5,98.2,63.5,98.2z M63.6,85.4c-1.3,0.8-3,2.3-3.3,4.9c-0.3,3,0.8,4.7,1.5,5.4c0.6,0.6,1.2,0.9,1.5,1
			c0.1-0.2,0.1-0.5,0.2-0.7c0.2-1.2,0.6-3.3,3.1-3.6C65.1,90.9,63,88.4,63.6,85.4z"/>
		<path d="M82,126.9c-0.5,0-1.1,0-1.7-0.1c-2.4-0.3-6.7-1.3-9.3-5.5c-2.7-4.3-1.1-9.9,0.2-11.8c0.4-0.5,1-0.7,1.6-0.6
			c0.6,0.1,1.1,0.5,1.3,1.1l0,0c1.7,6,7.4,6.9,10.7,7c0.5,0,0.9,0.3,1.1,0.8c0.2,0.5,0,1-0.4,1.3c-1.1,0.8-1.7,1.6-1.7,2.2
			c0,0.7,0.9,1.4,1.7,1.9c0.7,0.5,1.4,1,1.4,1.7c0,0.2,0,0.6-0.4,0.9C85.8,126.5,84,126.9,82,126.9z M72.5,110.2c0,0-0.1,0-0.1,0.1
			c-1.3,1.8-2.4,6.7-0.2,10.3c2.3,3.7,6.1,4.6,8.3,4.8c2.3,0.3,4.2-0.1,4.9-0.5c-0.2-0.2-0.5-0.4-0.7-0.6c-1-0.7-2.3-1.6-2.3-3.1
			c0-1,0.6-1.9,1.8-2.9c-3.2-0.2-9.6-1.4-11.4-8C72.7,110.3,72.6,110.2,72.5,110.2C72.6,110.2,72.6,110.2,72.5,110.2z"/>
		<path d="M18.1,203.5c-1.6,0-5.4-2-7.6-5c-2-2.7-2.5-5.6-1.4-8.4c1.7-4.3,5-8.2,7.6-8.9c0.6-0.2,1.2,0,1.6,0.5
			c0.4,0.5,0.5,1.1,0.3,1.7l0,0c-2.5,5.7,1.4,10.1,3.9,12.2c0.4,0.3,0.5,0.9,0.3,1.3c-0.2,0.5-0.7,0.8-1.2,0.7
			c-1.4-0.1-2.3,0.1-2.7,0.6c-0.4,0.6-0.2,1.7,0.1,2.6c0.2,0.9,0.4,1.6,0.1,2.2c-0.1,0.2-0.4,0.4-0.9,0.5
			C18.2,203.5,18.2,203.5,18.1,203.5z M17.2,182.6C17.2,182.6,17.2,182.6,17.2,182.6c-1.9,0.5-5.1,3.9-6.7,8c-1,2.4-0.6,4.8,1.2,7.1
			c2,2.7,5.2,4.3,6.3,4.4c0-0.2-0.1-0.6-0.2-0.9c-0.3-1.1-0.7-2.7,0.2-3.8c0.6-0.7,1.7-1.1,3.2-1.1c-2.4-2.2-6.6-7.1-3.8-13.4l0,0
			c0-0.1,0-0.1,0-0.2C17.3,182.6,17.3,182.6,17.2,182.6z"/>
		<path class="st71" d="M273.9,286.3c-0.5,2.9-16,13.4-23.5,6.7s-4.8-15.8-8.1-19.6c-3.4-3.8-7.2-9.1-5.3-13.9s10.1-3.8,12.9-10.1
			c1.1-2.3,0.1-5.5-1.5-8.6c-7.2,5.7-12.4,4.3-14.8,4.3c-2.4,0-12.5-2.9-13.9-6.7c-1.4-3.8,2.4-7.2,6.2-8.6c3.8-1.4,2.9-7.2,2.9-7.2
			s-0.2-1.1,0.7-2.1c0.6-0.8,1.8-1.5,4.1-1.7c5.3-0.5,3.4,2.4,9.6,3.8c6.2,1.4,11.5-4.3,13.4-9.1c1.9-4.8,5.3-10.1,7.7-10.5
			c2.4-0.5,6.9,2.9,7.2,6.7c1,12.5-10.1,19.6-10.5,22.5c-0.5,2.9,8.6,7.7,9.1,11.5c0.5,3.8-0.5,5.3-6.7,8.1
			c-6.2,2.9-9.1,1.8-10.5,6.6c-1.4,4.8,10.5,14.5,14.3,17.8C271,279.6,274.4,283.4,273.9,286.3z"/>
		<path d="M256.7,295.9c-2.4,0-4.8-0.6-6.7-2.4c-4.7-4.2-5.6-9.4-6.2-13.5c-0.4-2.6-0.8-4.8-2-6.2c-3.3-3.8-7.5-9.4-5.4-14.6
			c1-2.5,3.4-3.6,6-4.7c2.7-1.2,5.5-2.4,6.9-5.4c0.8-1.6,0.4-4.1-1.1-7.2c-6,4.5-10.8,4.1-13.4,4c-0.4,0-0.8-0.1-1.2-0.1
			c-2.3,0-12.9-2.9-14.6-7.2c-1.6-4.2,2.3-7.9,6.6-9.5c3.2-1.2,2.4-6.4,2.4-6.4c0-0.1-0.2-1.4,0.8-2.7c0.9-1.1,2.5-1.8,4.6-2
			c3.1-0.3,4,0.6,5.1,1.5c0.9,0.8,1.9,1.7,4.7,2.3c6.1,1.4,11-4.6,12.6-8.7c1.6-4.1,5.2-10.4,8.2-11c1.2-0.3,2.9,0.3,4.5,1.5
			c2.1,1.6,3.4,3.7,3.5,5.9c0.7,9.2-4.8,15.6-8.2,19.4c-1.2,1.4-2.3,2.6-2.4,3.3c-0.2,1,2,3,3.9,4.7c2.4,2.2,4.9,4.4,5.2,6.6
			c0.5,4.3-0.8,6-7.1,8.9c-2,0.9-3.6,1.4-5,1.9c-2.9,0.9-4.3,1.4-5.1,4.3c-1.2,3.9,8.7,12.4,12.9,16.1l1.2,1c5.1,4.4,7.4,8,6.9,10.7
			c-0.3,2-5.8,6.3-11.6,8.3C261.1,295.4,258.9,295.9,256.7,295.9z M248.6,239.7l0.4,0.8c2,3.9,2.5,7,1.5,9.2
			c-1.6,3.5-4.8,4.9-7.6,6.1c-2.4,1-4.5,1.9-5.3,3.9c-1.8,4.5,2.1,9.7,5.1,13.2c1.5,1.7,1.9,4.1,2.3,6.9c0.7,4.1,1.4,8.8,5.8,12.7
			c3.3,3,8.1,2.1,11.6,0.9c5.7-2,10.5-6,10.7-7.2l0,0c0.2-1.5-0.7-4.3-6.5-9.4l-1.2-1c-7.7-6.6-14.6-13.3-13.4-17.5
			c1.1-3.7,3.1-4.3,6.1-5.2c1.4-0.4,2.9-0.9,4.8-1.8c6.3-2.9,6.7-4.2,6.3-7.4c-0.2-1.7-2.6-3.8-4.7-5.7c-2.5-2.2-4.7-4.2-4.4-6
			c0.2-1,1.2-2.3,2.7-4c3.4-3.9,8.5-9.8,7.8-18.4c-0.1-1.7-1.2-3.5-3-4.8c-1.2-0.9-2.5-1.4-3.4-1.2c-1.9,0.4-5.1,4.9-7.2,10.1
			c-1.8,4.5-7.3,11.1-14.2,9.5c-3.1-0.7-4.3-1.8-5.3-2.6c-1-0.9-1.6-1.4-4.1-1.2c-1.7,0.2-3,0.7-3.6,1.5c-0.6,0.7-0.5,1.5-0.5,1.6
			c0,0.2,1,6.3-3.3,7.9c-3.1,1.2-7.2,4.2-5.8,7.7c1.2,3.3,10.7,6.3,13.2,6.3c0.4,0,0.8,0,1.3,0.1c2.7,0.2,7.2,0.5,13.1-4.2
			L248.6,239.7z"/>
		<path class="st71" d="M221.2,254.7c-0.7,4.1-4.8,4.3-13.4,1.9c-8.6-2.4-15.3,2.9-17.3,3.8c-1.9,1-6.5,5.8-9.7,4
			c-2.9-1.7-3.5-5.9-0.4-11.6c2.2-4.2,5.3-6.6,12.3-6.9c6.6-0.3,5.9-5.1,2.8-13c-2.1-5.2,0.9-8.2,0.9-8.2c2.9,4,9.3,10.8,21,13.2
			c0,0,0.3,0.9-2.1,1.8c-2.4,1-3.4,2.4-2.9,5.8C213,248.9,221.9,250.4,221.2,254.7z"/>
		<path d="M182.4,265.5c-0.7,0-1.3-0.1-1.9-0.5c-3.5-2-3.8-6.8-0.7-12.6c2.6-4.9,6.4-7,12.9-7.2c2-0.1,3.2-0.6,3.9-1.5
			c1.3-2-0.1-6.4-1.7-10.5c-2.2-5.6,1-8.8,1.1-9l0.6-0.6l0.5,0.7c2.7,3.8,9.1,10.5,20.6,13l0.4,0.1l0.1,0.4c0.1,0.3,0.4,1.6-2.5,2.7
			c-1.9,0.8-2.9,1.8-2.4,5c0.2,1.2,2,2.2,3.7,3.3c2.5,1.5,5.4,3.2,4.9,6c-0.2,1.4-0.9,2.5-1.9,3.2c-2.1,1.3-5.8,1.1-12.4-0.7
			c-7.1-2-12.9,1.5-15.6,3.1c-0.5,0.3-0.8,0.5-1.1,0.6c-0.4,0.2-1.1,0.7-1.8,1.2C187.1,263.7,184.7,265.5,182.4,265.5z M196.5,225.9
			c-0.7,1.1-1.6,3.4-0.3,6.8c2.1,5.3,3.2,9.3,1.6,11.7c-0.9,1.4-2.5,2.1-5,2.2c-7,0.3-9.8,2.8-11.8,6.5c-2.7,5-2.6,9.1,0.1,10.7
			c1.9,1.1,4.9-1.1,7-2.6c0.8-0.6,1.5-1.1,2-1.3c0.3-0.1,0.6-0.3,1-0.6c2.7-1.6,9-5.4,16.7-3.3c6.1,1.7,9.5,1.9,11.2,0.9
			c0.7-0.5,1.1-1.2,1.3-2.2l0,0c0.3-1.9-2-3.3-4.2-4.6c-2.1-1.3-4.1-2.5-4.4-4.3c-0.5-3.5,0.5-5.4,3.3-6.5c0.7-0.3,1.1-0.5,1.3-0.7
			C205.7,235.9,199.5,229.8,196.5,225.9z"/>
		<path class="st70" d="M295.9,117.6c-1.2,5.6,11.6,16.4,27.3,15.2c10.5-0.9,17.8-1.7,11,6.7c-6.9,8.5-11.5,12.7-26.8,12.7
			s-16.3-10.1-19.6-16.8c-3.2-6.3,0.9-16.9,1.4-18.1C289.2,117.2,292.2,118.1,295.9,117.6z"/>
		<path d="M307.4,152.8c-13.2,0-16.1-7.2-18.7-13.6c-0.5-1.3-1-2.5-1.6-3.6c-3.2-6.4,0.6-16.7,1.4-18.7l0.2-0.6l0.6,0.2
			c0,0,2.9,0.8,6.5,0.3l1-0.1l-0.2,1c-0.3,1.4,0.5,3.4,2.3,5.5c4.3,4.9,13.7,9.7,24.2,8.8l1-0.1c6.9-0.6,11.9-1,13.2,1.4
			c0.8,1.4,0,3.5-2.5,6.5C327.5,148.9,322.8,152.8,307.4,152.8z M289.6,118c-0.9,2.5-3.9,11.5-1.2,17c0.6,1.2,1.1,2.4,1.6,3.7
			c2.5,6.2,5.2,12.7,17.4,12.7c14.7,0,19.3-3.8,26.3-12.4c2.6-3.3,2.6-4.5,2.4-5c-0.8-1.5-6.2-1.1-11.8-0.6l-1,0.1
			c-11.1,0.9-20.8-4-25.4-9.3c-1.8-2-2.7-4-2.7-5.8C292.6,118.6,290.6,118.3,289.6,118z"/>
		<path class="st39" d="M67.2,93c-3.8,0.2-2.4,4.4-3.7,4.4c-1.4,0-4.3-2.4-3.8-7.2c0.3-3.3,2.8-5.1,4.2-5.8c0.4-0.2,0.7,0.2,0.6,0.5
			c-1,3,1.4,5.7,3,7.1C67.8,92.4,67.6,93,67.2,93z"/>
		<path d="M63.5,98.2c-0.9,0-1.9-0.6-2.7-1.5c-0.8-0.9-2.2-3-1.8-6.5c0.4-3.7,3-5.6,4.6-6.3c0.4-0.2,0.9-0.2,1.2,0.1
			c0.4,0.3,0.5,0.8,0.3,1.2c-0.9,2.6,1.4,5.1,2.8,6.4c0.4,0.3,0.5,0.8,0.4,1.3c-0.2,0.5-0.6,0.8-1.1,0.8h0c-1.7,0.1-2,1.1-2.3,2.5
			C64.7,97.1,64.5,98.2,63.5,98.2z M63.6,85.4c-1.3,0.8-3,2.3-3.3,4.9c-0.3,3,0.8,4.7,1.5,5.4c0.6,0.6,1.2,0.9,1.5,1
			c0.1-0.2,0.1-0.5,0.2-0.7c0.2-1.2,0.6-3.3,3.1-3.6C65.1,90.9,63,88.4,63.6,85.4z M64.2,85.1C64.2,85.1,64.2,85.1,64.2,85.1
			C64.2,85.1,64.2,85.1,64.2,85.1z"/>
		<path class="st39" d="M86,125.3c-1.4,1.4-10.4,2-14.4-4.3c-2.4-3.8-1.2-9.2,0.2-11.1c0.4-0.6,1.4-0.4,1.6,0.3
			c1.8,6.5,8.3,7.4,11.4,7.5c0.5,0,0.6,0.6,0.3,0.9C79.5,122.6,87.4,123.9,86,125.3z"/>
		<path d="M82,126.9c-0.5,0-1.1,0-1.7-0.1c-2.4-0.3-6.7-1.3-9.3-5.5c-2.7-4.3-1.1-9.9,0.2-11.9c0.4-0.5,1-0.7,1.6-0.6
			c0.6,0.1,1.1,0.5,1.3,1.1c1.6,6,7.4,6.9,10.7,7c0.5,0,1,0.3,1.1,0.8c0.2,0.5,0,1-0.4,1.3c-1.1,0.8-1.7,1.6-1.7,2.2
			c0,0.7,0.9,1.4,1.7,1.9c0.7,0.5,1.4,1,1.4,1.7c0,0.2,0,0.6-0.4,0.9C85.8,126.5,84,126.9,82,126.9z M72.5,110.2c0,0-0.1,0-0.1,0.1
			c-1.3,1.8-2.4,6.7-0.2,10.3c2.3,3.7,6.2,4.6,8.3,4.8c2.3,0.3,4.2-0.1,4.9-0.5c-0.2-0.2-0.5-0.4-0.7-0.6c-1-0.7-2.3-1.6-2.3-3.1
			c0-1,0.6-1.9,1.8-2.9c-3.2-0.2-9.6-1.4-11.4-8C72.7,110.3,72.6,110.2,72.5,110.2C72.6,110.2,72.6,110.2,72.5,110.2z M85.5,124.8
			l0.5,0.5L85.5,124.8C85.5,124.8,85.5,124.8,85.5,124.8z"/>
		<path class="st39" d="M21.7,197c-6.8-0.4-1.6,5.6-3.5,5.8c-2,0.2-11.3-5.2-8.4-12.4c1.7-4.2,4.9-7.8,7.2-8.4
			c0.7-0.2,1.3,0.5,1,1.2c-2.7,6.2,1.7,11,4.1,13C22.4,196.4,22.2,197,21.7,197z"/>
		<path d="M18.1,203.5c-1.6,0-5.4-2-7.6-5c-2-2.7-2.5-5.6-1.4-8.4c1.7-4.3,5.1-8.2,7.6-8.9c0.6-0.2,1.2,0,1.6,0.5
			c0.4,0.5,0.5,1.1,0.3,1.7c-2.5,5.7,1.4,10.1,3.9,12.2c0.4,0.3,0.5,0.8,0.3,1.3c-0.2,0.5-0.7,0.8-1.2,0.8h0
			c-1.4-0.1-2.3,0.1-2.7,0.6c-0.4,0.6-0.2,1.7,0.1,2.5c0.2,0.9,0.4,1.6,0.1,2.2c-0.1,0.2-0.4,0.4-0.9,0.5
			C18.2,203.5,18.2,203.5,18.1,203.5z M17.2,182.6C17.2,182.6,17.2,182.6,17.2,182.6c-1.9,0.5-5,3.7-6.7,8c-1,2.4-0.6,4.8,1.2,7.1
			c2,2.7,5.2,4.3,6.3,4.4c0-0.2-0.1-0.6-0.2-0.9c-0.3-1.1-0.7-2.7,0.2-3.8c0.6-0.7,1.7-1.1,3.2-1.1c-2.4-2.2-6.6-7.1-3.8-13.4
			c0-0.1,0-0.2,0-0.2C17.3,182.6,17.3,182.6,17.2,182.6z M21.6,196.7C21.6,196.7,21.6,196.7,21.6,196.7
			C21.6,196.7,21.6,196.7,21.6,196.7z"/>
		<path class="st68" d="M194.6,221.7c0,0,3.7-4,9.2-12.3l3.5-6.5c0,0,14,6.4,15.8,8.8c1.8,2.4,5.1,3.9,6.4,8.4c0,0-1,1.5-0.6,3.6
			c0.4,2.2-0.4,4.8-3,6c-2.5,1.3-4.2,2-5.6,4.1c-1.4,2.1-0.7,4.3-0.7,4.3s-5.6-0.9-7.9-1.9c-2.3-1-6-2.7-8-4.3
			C201.1,229.9,196.6,225.7,194.6,221.7z"/>
		<path d="M220.7,239l-1.1-0.2c-0.2,0-5.7-0.9-8-1.9c-1.3-0.6-5.8-2.5-8.1-4.4c-1.6-1.3-7-5.8-9.4-10.6l-0.2-0.4l0.3-0.4
			c0,0,3.8-4,9.1-12.2l3.8-7l0.6,0.3c1.5,0.7,14.3,6.6,16.1,9c0.5,0.7,1.2,1.4,2,2.1c1.7,1.6,3.6,3.3,4.5,6.6l0.1,0.3l-0.2,0.3
			c0,0-0.8,1.3-0.5,3.1c0.5,2.3-0.4,5.3-3.4,6.8l-0.4,0.2c-2.3,1.1-3.7,1.8-4.9,3.7c-1.2,1.8-0.6,3.6-0.6,3.7L220.7,239z
			 M195.4,221.8c1.9,3.5,5.8,7.2,8.8,9.7c2.2,1.8,6.5,3.6,7.8,4.2c1.6,0.7,5.1,1.4,6.7,1.7c-0.1-1,0-2.4,1-3.8
			c1.4-2.2,3.1-3,5.5-4.2l0.4-0.2c2.3-1.1,3-3.5,2.6-5.3c-0.4-1.9,0.2-3.3,0.5-3.9c-0.8-2.7-2.5-4.2-4-5.6c-0.8-0.7-1.5-1.4-2.1-2.2
			c-1.2-1.6-9.4-5.7-14.9-8.3l-3.2,5.9C199.8,216.7,196.5,220.6,195.4,221.8z"/>
		<path class="st72" d="M167,158.8c0,0-8.4-6.6-18.8-4.9c0,0-7.4,1-11,3.8c0,0,11.2,2.9,11,5.7c0,0,0.7,1.5-1.2,5.7
			c-1.9,4.2,0.6,4.8,0.6,4.8s1.9,1.3,8.1,1.1C155.7,175,164.3,168.5,167,158.8z"/>
		<path d="M154,175.7c-4.5,0-6.4-0.9-6.8-1.2c-0.3-0.1-1-0.5-1.4-1.3c-0.5-1.1-0.3-2.6,0.5-4.4c1.7-3.7,1.2-5.1,1.2-5.1l0-0.3
			c0.1-1.3-5.3-3.7-10.4-5l-1.4-0.4l1.1-0.9c3.7-2.9,11-3.9,11.3-3.9c10.5-1.8,18.9,4.8,19.3,5.1l0.4,0.3l-0.1,0.4
			c-2.7,9.8-11.2,16.2-11.5,16.5l-0.2,0.1l-0.2,0C155.1,175.7,154.5,175.7,154,175.7z M148.9,163.3c0.2,0.6,0.4,2.4-1.3,6.1
			c-0.8,1.8-0.7,2.7-0.5,3.2c0.2,0.5,0.6,0.6,0.6,0.6l0.2,0.1c0,0,1.8,1.2,7.5,0.9c1.2-0.9,8.2-6.8,10.7-15.2
			c-1.7-1.2-9.1-5.9-17.8-4.5c-0.1,0-5.8,0.8-9.4,2.8C142.5,158.4,148.8,160.6,148.9,163.3z"/>
		<path class="st73" d="M155.7,175c0,0-8.1,6.6-17.2,5.7c-9.1-0.9-9.4-10-9-12.2c0.3-2.2,0.1-5.8,7.8-10.8c0,0,8.8,0.1,13.6,3.3
			C156,164.4,156.1,168.9,155.7,175z"/>
		<path d="M140.2,181.5c-0.6,0-1.2,0-1.8-0.1c-3.1-0.3-5.6-1.6-7.3-3.8c-2.6-3.4-2.6-7.8-2.4-9.3c0-0.2,0.1-0.4,0.1-0.6
			c0.3-2.4,0.7-5.9,8-10.7l0.2-0.1l0.2,0c0.4,0,9,0.1,14,3.4c5.5,3.7,5.6,8.6,5.2,14.6l0,0.3l-0.2,0.2
			C155.8,175.8,148.7,181.5,140.2,181.5z M137.4,158.4c-6.6,4.3-6.9,7.4-7.2,9.6c0,0.2-0.1,0.4-0.1,0.6c-0.2,1.2-0.2,5.2,2.1,8.2
			c1.5,1.9,3.6,3,6.3,3.2c7.8,0.8,15.1-4.4,16.4-5.4c0.4-5.7,0.3-9.8-4.6-13C146.2,158.8,138.8,158.4,137.4,158.4z"/>
		<path class="st74" d="M330,68.2c-2.4-8.7-9.9-18.1-22.5-23c-11.7-4.5-25.4-4.8-41.2,2.4c-15.8,7.2-19.4,19.8-20.8,31.8
			c-1.4,12,6.1,28.5,10.8,33.9c22.6,26.4,13.6,49.9,8.6,58.8c-6.9,12.4-10.6,19.1-24,20.2c-11.5,0.9-24.4-8.5-24.4-8.5
			c-4.3-0.4-3.8,1.1-5.3,1.9c-0.5,5.7-1.7,11.3-3.8,17.2c0,6.7,15.9,9.3,19.2,12.5c2.3,2.2,2.9,5.1,2.9,5.1c0.6-0.8,3.6-2.1,5.6-0.9
			c16.8,9.9,19.7-1.3,21.6-6.1c1.9-4.8,5.3-10.1,7.7-10.5c2.4-0.5,6.7,2.9,7.2,6.7c0,0,16.1-11.1,19.4-23.9
			c1.8-6.9,3.1-17.7-1.2-33.6c-4.3-15.8-11.8-28.6-18-35.8c-7.2-8.4-22.7-25-11.5-45.8c9-16.8,22.6-17.6,30.2-17.6
			c7.6,0,23.9,4.1,28.1,18.7c3.8,13.5-1,24.6-15.4,34c-1.9,1.2-3.8,1.9-5.7,2.3c0.1-0.6,0.7-3.4,2.4-8.5c1.4-4.2,0.8-12.6-2.4-15.8
			c-2.4-2.5-7.7-5.8-14.4-4.8c-9.6,1.4-15.3,9.6-14.4,18.2c1,8.6,6.7,17.3,17.3,19.6c1.1,0.2,2.2,0.4,3.3,0.6h0
			c9.9,1.3,21.6-0.9,31.2-11.1C330.5,95.4,332.3,76.6,330,68.2z M294,99.6c0,4.1-2.4,8.4-2.4,8.4c-4.4-0.1-9-2.3-9-2.3
			s-4.6-1.4-5.7-5.5c-1.1-4.1,0.1-6.8,0.5-7.8c0.4-1,2-3.6,6-4.7c4-1.1,6.4,0.1,8,2C293.1,91.7,294,94.7,294,99.6z"/>
		<path d="M246.4,224.2c-3.2,0-7.1-1.4-11.7-4.1c-1.6-0.9-4.2,0.2-4.7,0.8l-0.9,1.1l-0.3-1.4c0,0-0.6-2.8-2.7-4.8
			c-1.1-1-3.7-2-6.6-3.1c-6-2.3-12.9-5-12.9-9.8l0-0.2c2-5.5,3.2-11.1,3.7-17l0-0.4l0.3-0.2c0.3-0.2,0.5-0.4,0.7-0.7
			c0.9-1,1.8-1.7,4.9-1.4l0.2,0l0.2,0.1c0.1,0.1,12.9,9.3,24,8.4c12.9-1,16.3-7.2,23.2-19.4l0.3-0.5c4.9-8.7,13.8-31.8-8.5-58
			c-4.6-5.4-12.4-21.9-10.9-34.4c1.4-11.9,5.1-25,21.2-32.3c14.7-6.7,28.7-7.5,41.8-2.4c11.6,4.5,20.1,13.3,22.9,23.5
			c2.5,8.9,0.4,27.8-9.8,38.5c-11.4,12.1-24.8,12.3-31.8,11.3c-1.1-0.1-2.2-0.3-3.4-0.6c-11.8-2.7-16.9-12.6-17.8-20.3
			c-1-9.4,5.4-17.5,15-19c6.5-1,12,1.9,15,5c3.5,3.6,3.9,12.4,2.6,16.5c-1.2,3.6-1.8,6-2.1,7.3c1.7-0.5,3.1-1.1,4.4-1.9
			c13.9-9.1,18.8-20,15.1-33.2c-4.2-14.9-21.2-18.2-27.4-18.2c-9.5,0-21.4,2-29.6,17.3c-10.5,19.6,3.2,35.5,10.6,44.1l0.8,0.9
			c7.6,8.8,14.4,22.3,18.1,36.1c3.4,12.6,3.8,23.7,1.2,33.9c-3.3,13-19,23.9-19.7,24.4l-1,0.7l-0.1-1.1c-0.3-2.2-1.9-4-3.3-5
			c-1.1-0.8-2.3-1.2-3.1-1.1c-1.9,0.4-5.1,4.9-7.2,10.1c-0.1,0.3-0.2,0.6-0.4,1c-1.1,3-2.8,7.5-7.2,9
			C248.7,224,247.6,224.2,246.4,224.2z M233.2,218.4c0.8,0,1.5,0.2,2.2,0.6c5.8,3.4,10.5,4.6,13.8,3.4c3.7-1.3,5.2-5.3,6.3-8.2
			c0.1-0.4,0.3-0.7,0.4-1c1.6-4.1,5.2-10.4,8.2-11c1.2-0.2,2.7,0.2,4.2,1.3c1.4,1,3,2.8,3.6,4.9c3.4-2.5,15.5-12.2,18.3-22.9
			c2.6-9.9,2.2-20.8-1.2-33.2c-5.5-20.1-15-32.3-17.8-35.5l-0.8-0.9c-7.6-8.8-21.8-25.2-10.8-45.7c8.6-16,21-18,30.8-18
			c6.5,0,24.3,3.5,28.8,19.2c3.9,13.9-1.2,25.3-15.7,34.8c-1.7,1.1-3.6,1.9-6,2.4l-1,0.2l0.2-1c0.1-0.5,0.7-3.4,2.4-8.6
			c1.4-4.2,0.6-12.2-2.2-15.1c-2.6-2.7-7.8-5.5-13.8-4.6c-8.8,1.3-14.7,8.8-13.8,17.4c0.8,7.2,5.7,16.5,16.7,19
			c1.1,0.2,2.2,0.4,3.2,0.6c6.8,0.9,19.7,0.7,30.6-10.9c9.8-10.4,11.8-28.6,9.4-37.2l0,0c-2.7-9.8-11-18.2-22.1-22.5
			c-12.7-4.9-26.4-4.1-40.7,2.4c-15.5,7-19,19.2-20.4,31.2c-1.4,11.9,6.2,28.3,10.6,33.3c23,26.8,13.7,50.6,8.7,59.6l-0.3,0.5
			c-6.9,12.3-10.6,19-24.3,20.1c-11,0.9-23.1-7.4-24.8-8.5c-2.6-0.2-3,0.3-3.6,0.9c-0.2,0.2-0.4,0.5-0.8,0.7
			c-0.6,5.9-1.8,11.4-3.7,16.9c0.1,3.8,6.7,6.4,12,8.4c3.1,1.2,5.8,2.2,7.1,3.4c1.6,1.5,2.4,3.4,2.8,4.5
			C230.7,218.8,232,218.4,233.2,218.4z M292,108.7l-0.4,0c-4.5-0.1-9.1-2.2-9.3-2.3c-0.1,0-4.9-1.6-6.1-6c-1.1-4.4,0.1-7.3,0.5-8.2
			c0.3-0.6,1.8-3.8,6.5-5.1c3.8-1,6.6-0.3,8.7,2.2c1.9,2.2,2.7,5.5,2.7,10.3l0,0c0,4.2-2.4,8.6-2.5,8.8L292,108.7z M286.3,88
			c-0.8,0-1.7,0.1-2.7,0.4c-4,1.1-5.3,3.7-5.5,4.3c-0.4,0.8-1.5,3.4-0.4,7.3c0.9,3.7,5.2,5,5.2,5c0.1,0.1,4.3,2,8.4,2.2
			c0.6-1.1,2.1-4.5,2.1-7.7c0-4.5-0.8-7.4-2.4-9.4C289.7,88.7,288.2,88,286.3,88z"/>
		<path class="st75" d="M211.1,185.7c-0.5,5.7-1.7,11.3-3.8,17.2c-0.6,1.7-1.3,3.5-2.1,5.2c-3.7,1.5-11.5,1.5-20.7-0.9
			c-5.7-1.5-17.2-12.3-19.5-16.3c-0.5-0.9-0.8-2.3-0.9-4.1v0c0-0.3,0-0.5,0-0.6c0,0,0,0,0,0c-0.1-4.9,1.6-11.8,6.7-15.9
			c7.2-5.8,8.1-9.6,8.1-9.6c2.6,4.4,25.8,14.5,30.2-5.8c0.4,1.7,0.8,3,1,4.9c0.2,1.4,0.6,3,0.7,4.4c-1.8-2.6-3.6-5-3.6,0.4
			c0,9.1-2.4,8.6-2.9,12.5c-0.5,3.8,1.9,9.6,5.3,9.1C210.3,186,210.8,185.9,211.1,185.7z"/>
		<path d="M198.3,209.8c-4,0-8.9-0.7-13.9-2c-6-1.5-17.6-12.5-19.9-16.6c-0.6-1-0.9-2.6-1-4.4c0-0.3,0-0.5,0-0.6
			c-0.1-5,1.7-12.3,7-16.5c6.9-5.5,7.9-9.2,7.9-9.2l0.4-1.6l0.9,1.5c1.4,2.4,10.3,7.1,18.1,5.9c5.7-0.9,9.4-4.8,10.8-11.5l0.7-3.2
			l0.7,3.2c0.1,0.4,0.2,0.9,0.3,1.3c0.3,1.2,0.5,2.3,0.7,3.7c0.1,0.6,0.2,1.3,0.3,2c0.1,0.8,0.3,1.7,0.4,2.4l0.3,2.8l-1.6-2.3
			c-0.5-0.7-1.5-2.2-2-2.5c-0.1,0.2-0.3,0.8-0.3,2.5c0,6-1,8-1.9,9.7c-0.4,0.9-0.8,1.6-1,2.9c-0.3,2.5,0.7,5.9,2.3,7.5
			c0.7,0.7,1.4,1,2.1,0.9c0.5-0.1,0.9-0.2,1.2-0.4l1.2-0.7l-0.1,1.4c-0.6,6-1.8,11.7-3.8,17.4c-0.6,1.7-1.3,3.5-2.1,5.3l-0.1,0.3
			l-0.3,0.1C203.8,209.5,201.3,209.8,198.3,209.8z M179.2,162.1c-0.8,1.6-2.9,4.7-7.9,8.8c-4.9,3.9-6.5,10.7-6.4,15.3
			c0,0,0,0.3,0,0.6c0.1,1.6,0.4,3,0.8,3.8c2.2,3.9,13.5,14.5,19,15.9c8.3,2.1,16.1,2.5,20,1c0.7-1.7,1.4-3.3,1.9-4.9
			c1.8-5.2,3-10.4,3.6-15.9c-0.2,0-0.3,0.1-0.5,0.1c-1.2,0.2-2.3-0.3-3.3-1.3c-1.9-1.9-3.1-5.7-2.7-8.6c0.2-1.5,0.6-2.4,1.1-3.4
			c0.8-1.6,1.7-3.4,1.7-9c0-0.9,0-1.6,0.1-2.1c-2.5,3.4-5.9,4.8-8.8,5.2C190.6,168.8,182.1,165,179.2,162.1z M208.2,160.6
			c0.5,0,1,0.3,1.5,0.9c-0.1-0.6-0.2-1.1-0.3-1.6c-0.1-0.8-0.2-1.4-0.4-2.1c-0.4,1.1-0.8,2-1.2,2.8
			C208,160.6,208.1,160.6,208.2,160.6z"/>
		<path class="st74" d="M250.4,151.1c-13.8,3.7-14.9,10-15.1,14.3c-0.3,7.6-5.4,13.6-8.9,15.9c-4.8,3.2-15.2,4.8-16.8,4.8
			c-3.4-0.1-5.8-5.3-5.3-9.1c0.5-3.8,2.9-3.4,2.9-12.5c0-5.4,1.5-3.4,3.4-0.7c1.3,1.8,2.7,3.9,3.8,4.1c2.9,0.5,10.1,1,12.5-1.9
			c2.4-2.9,1.9-8.6,0-10.5s-4.3-3.8-4.3-3.8s-5.8-2.9-4.3-6.7c1.4-3.8,4.3-4.8,5.8-4.8c1.4,0,5.8,4.3,8.1,5.8
			c2.4,1.4,3.3-18.1,20.6-16.3C263.4,130.7,266.4,146.8,250.4,151.1z"/>
		<path d="M209.7,186.8C209.7,186.8,209.7,186.8,209.7,186.8c-1.3,0-2.6-0.7-3.6-1.9c-1.7-2-2.7-5.3-2.4-8c0.2-1.5,0.6-2.4,1.1-3.4
			c0.8-1.6,1.7-3.4,1.7-9c0-2.6,0.3-3.8,1.2-4.1c1.1-0.3,2,0.9,3.4,2.9l0.2,0.2c1,1.4,2.4,3.4,3.2,3.6c3.7,0.6,9.9,0.7,11.8-1.7
			c2.2-2.7,1.6-8,0-9.6c-1.7-1.7-3.8-3.4-4.2-3.7c-0.7-0.4-6.2-3.4-4.6-7.5c1.6-4.1,4.8-5.2,6.4-5.2c1.1,0,2.6,1.2,5.1,3.3
			c1.2,1,2.4,1.9,3.3,2.5c0.3-0.4,0.8-1.6,1.3-2.6c2.2-5.3,6.4-15.1,19.2-13.7c5.1,0.5,9,4.5,9.4,9.6c0.4,4.8-2.5,10.9-11.7,13.3
			l0,0c-14.2,3.8-14.4,10.5-14.5,13.7c-0.3,8.4-6.2,14.4-9.2,16.4C221.8,185.2,211.3,186.8,209.7,186.8z M208.2,161.9
			c-0.1,0.3-0.3,0.9-0.3,2.6c0,6-1,8-1.9,9.7c-0.4,0.9-0.8,1.6-1,2.9c-0.3,2.3,0.6,5.2,2,6.9c0.5,0.6,1.4,1.4,2.6,1.4c0,0,0,0,0,0
			c1.5,0,11.6-1.6,16.3-4.7c3.3-2.2,8.3-8,8.6-15.3c0.2-5.4,2.2-11.4,15.6-15l0,0c8.3-2.3,11-7.6,10.6-11.9
			c-0.4-4.4-3.7-7.8-8.1-8.3c-11.8-1.2-15.7,7.9-17.7,12.9c-0.9,2-1.3,3.2-2.2,3.5c-0.3,0.1-0.7,0.1-1-0.1c-1-0.6-2.3-1.7-3.6-2.7
			c-1.4-1.2-3.6-2.9-4.2-2.9c-1.3,0-3.8,0.9-5.1,4.3c-1.2,3.2,3.9,5.8,4,5.8l0.1,0.1c0.1,0.1,2.4,2,4.4,3.9c2.2,2.2,2.6,8.4,0,11.5
			c-3.1,3.8-12.7,2.2-13.1,2.2c-1.4-0.2-2.7-2.1-4.1-4.2l-0.2-0.2C209.6,163.6,208.7,162.3,208.2,161.9z"/>
		<path class="st76" d="M164.3,188.5c0,0,5.2,11.5,18.3,15.8c16.7,5.6,24.7-1.5,24.7-1.5s-4.3,13.8-12.7,18.8
			c-8.1,4.8-19.4,8.7-29.3,10.3c0,0-2.1-3.6-4.4-3.8c-2.2-0.2-2.8-4-1.8-4.4c1-0.3,1.1-0.6,3.3-0.2c2.2,0.4,3.3-0.8,3.3-0.8
			s1.3-2.2,0.6-6.2c0,0-1.1-2-4.6-0.8c-3.5,1.2-3.8,1.3-3.8,1.3s-1.8,1-3.7-1.4c-1.9-2.4-2.2-2.6-3-4.8c-0.8-2.2-0.3-5.9,2-7.9
			c2.3-2,4.1-3.4,4.1-3.4s2.7-2,4-4.4C162.7,192.8,163.4,191.7,164.3,188.5z"/>
		<path d="M164.9,232.8l-0.2-0.4c-0.5-0.9-2.3-3.3-3.8-3.5c-1.7-0.2-2.7-2-2.9-3.5c-0.1-1.2,0.2-2,0.9-2.2c0.2,0,0.3-0.1,0.4-0.1
			c0.8-0.3,1.3-0.4,3.3-0.1c1.7,0.3,2.6-0.5,2.6-0.6l0,0c0,0,1-1.9,0.4-5.5c-0.2-0.3-1.2-1.3-3.7-0.4c-2.7,0.9-3.5,1.2-3.8,1.3
			c-0.9,0.4-2.8,0.6-4.5-1.6l-0.7-0.9c-1.3-1.6-1.7-2.1-2.5-4.1c-0.9-2.5-0.4-6.5,2.2-8.7c2.3-2,4.1-3.4,4.2-3.4c0,0,2.6-2,3.9-4.2
			l0.4-0.7c1.1-1.9,1.7-3,2.5-5.8l0.5-1.8l0.8,1.7c0.1,0.1,5.2,11.2,17.9,15.5c16.1,5.4,23.9-1.3,24-1.4l1.9-1.7l-0.8,2.4
			c-0.2,0.6-4.5,14.2-13.1,19.2c-8,4.7-19.3,8.7-29.6,10.4L164.9,232.8z M160.8,224.1c-0.4,0-0.7,0.1-1,0.2
			c-0.1,0.1-0.3,0.1-0.5,0.2c0,0.1-0.1,0.9,0.3,1.8c0.2,0.4,0.6,1.1,1.3,1.2c2.1,0.2,3.9,2.7,4.6,3.8c9.9-1.7,20.9-5.6,28.6-10.2
			c6.2-3.7,10.2-12.5,11.7-16.5c-3.3,1.8-11,4.6-23.5,0.4c-10.5-3.5-16-11.4-17.9-14.7c-0.6,1.9-1.3,3-2.1,4.5l-0.4,0.7
			c-1.4,2.5-4.1,4.5-4.2,4.6c0,0-1.8,1.4-4.1,3.3c-2,1.7-2.5,5.1-1.8,7.1c0.7,1.8,1,2.1,2.2,3.7l0.7,0.9c1.4,1.8,2.7,1.3,2.8,1.2
			l0.2-0.1c0,0,0.5-0.1,3.7-1.2c4-1.4,5.4,1,5.4,1.1l0.1,0.2c0.8,4.3-0.6,6.6-0.7,6.7c-0.1,0.2-1.4,1.6-4,1.2
			C161.6,224.2,161.2,224.1,160.8,224.1z"/>
		<path class="st74" d="M149.7,100.2c0,0,5.6,12.6,9.8,16.8c4.2,4.2,8.4,21.1,8.4,21.1s-15.4-9.8-39.3-2.8s-32.3,26.7-32.3,26.7
			s-11.2,21.1,5.6,32.3c0,0,9.8,7,11.2,9.8c1.4,2.8,5.6,2.8,8.4,1.4c0,0,9.8,2.8,12.6,2.8c0,0,1.4,4.2,4.2,7c2.8,2.8,4.2,2.8,5.6,7
			c0,0,0,2.5,0,5.6c0,4.2-1.4,11.2,7,19.7c5.6,5.6,14,1.4,16.8-2.8c1.7-2.6,2.8-9.8-4.2-15.4c-1.6-1.2-2.8-1.4-4.2-2.8
			c-1.4-1.4,0-2.8,1.4-2.8c0,0,5.6,1.4,5.6-2.8c0-4.2,1.4-5.6-2.8-5.6c-4.2,0-4.2,1.4-7,1.4c-2.8,0-9.2-7.7-4.2-12.6
			c4.2-4.2,7-5.6,9.8-9.8c1.7-2.6,2.8-5.6,2.8-12.6s7-11.2,9.8-14c2.8-2.8,5.6-5.6,4.2-8.4c-1.4-2.8,0-8.4-1.4-15.4
			c-1.4-7-1.4-9.8-1.4-9.8s-4.2-1.4-4.2-8.4c0-7-1.4-9.8-7-16.8c0,0-4.2-5.6-5.6-9.8L149.7,100.2z"/>
		<path d="M157.6,251c-2.7,0-5.1-1-7-2.9c-7.7-7.7-7.4-14.2-7.3-18.6c0-0.6,0-1.1,0-1.6v-5.5c-0.9-2.8-1.8-3.5-3.3-4.7
			c-0.6-0.5-1.3-1.1-2.1-1.9c-2.4-2.4-3.8-5.6-4.2-6.8c-3.1-0.2-10.6-2.3-12.1-2.7c-3.2,1.5-7.6,1.2-9.1-1.8
			c-1.1-2.2-8.3-7.6-11-9.6c-17.2-11.4-5.9-33-5.8-33.2c0.1-0.1,8.8-20,32.7-27c12.5-3.7,22.6-2.7,29-1.2c4.5,1,7.7,2.4,9.4,3.3
			c-1.2-4.3-4.5-15.9-7.8-19.2c-4.3-4.3-9.7-16.5-10-17.1l-0.4-0.8L160,98l0.2,0.6c1.4,4.1,5.5,9.6,5.5,9.6c5.6,7,7.2,10,7.2,17.3
			c0,6.4,3.6,7.7,3.7,7.8l0.5,0.2l0,0.5c0,0,0,2.9,1.4,9.7c0.7,3.6,0.7,6.8,0.7,9.4c0,2.6,0,4.6,0.6,5.8c1.6,3.3-1.4,6.3-4.3,9.2
			c-0.6,0.6-1.3,1.2-2.1,1.9c-3.2,2.7-7.5,6.4-7.5,11.7c0,7.2-1.1,10.3-2.9,13c-1.8,2.8-3.7,4.4-5.9,6.2c-1.2,1-2.5,2.2-4.1,3.7
			c-2.2,2.2-1.8,4.8-1,6.6c1.2,2.9,3.7,4.8,4.8,4.8c1.1,0,1.7-0.2,2.5-0.5c1-0.4,2.1-0.9,4.6-0.9c1.8,0,2.7,0.2,3.2,0.8
			c0.7,0.7,0.6,1.7,0.4,3c-0.1,0.7-0.1,1.5-0.1,2.4c0,1.2-0.4,2.2-1.3,2.9c-1.7,1.3-4.6,0.8-5.1,0.7c-0.5,0-1,0.3-1.2,0.7
			c-0.1,0.3,0,0.6,0.3,0.9c0.7,0.7,1.4,1.1,2.1,1.5c0.6,0.3,1.3,0.7,2,1.3c7.5,6,6.2,13.6,4.4,16.4c-1.6,2.5-5.4,5.3-9.9,5.8
			C158.3,251,157.9,251,157.6,251z M121.5,204.7l0.3,0.1c0.1,0,9.8,2.8,12.4,2.8h0.5l0.2,0.5c0,0,1.4,4.1,4,6.7
			c0.8,0.8,1.4,1.3,2,1.8c1.6,1.3,2.7,2.3,3.8,5.5l0,0.2v5.6c0,0.5,0,1,0,1.6c-0.1,4.1-0.4,10.3,6.9,17.5c1.9,1.9,4.3,2.7,6.9,2.5
			c3.8-0.4,7.3-2.9,8.8-5.2c1.5-2.3,2.6-9.1-4.1-14.5c-0.6-0.5-1.2-0.8-1.8-1.1c-0.8-0.4-1.6-0.9-2.5-1.7c-0.7-0.7-1-1.6-0.6-2.4
			c0.4-0.9,1.4-1.6,2.5-1.6l0.2,0c0.7,0.2,2.9,0.5,4-0.4c0.5-0.4,0.7-0.9,0.7-1.8c0-1,0.1-1.9,0.1-2.6c0.1-1,0.2-1.7-0.1-2
			c-0.2-0.3-1-0.4-2.2-0.4c-2.2,0-3.1,0.4-4,0.8c-0.8,0.3-1.6,0.6-3,0.6c-2,0-4.8-2.7-6-5.7c-1.3-3.1-0.8-6,1.3-8.1
			c1.5-1.5,2.9-2.7,4.1-3.8c2.2-1.9,3.9-3.3,5.6-5.9c1.7-2.5,2.7-5.4,2.7-12.2c0-6,4.6-9.9,8-12.7c0.8-0.7,1.5-1.3,2-1.8
			c2.7-2.7,5.3-5.3,4.1-7.6c-0.8-1.6-0.8-3.7-0.8-6.5c0-2.5,0-5.7-0.7-9.2c-1.1-5.5-1.3-8.4-1.4-9.5c-1.2-0.6-4.2-2.8-4.2-8.9
			c0-6.9-1.4-9.6-6.9-16.4c-0.2-0.2-4-5.3-5.5-9.5l-8.3,1.2c1.3,2.9,5.8,12.3,9.3,15.8c4.3,4.3,8.4,20.7,8.6,21.4l0.4,1.7l-1.5-0.9
			c-0.2-0.1-15.5-9.6-38.7-2.7c-23.3,6.8-31.8,26.1-31.8,26.3c-0.5,0.9-10.8,20.7,5.4,31.4c1,0.7,10,7.2,11.5,10.1
			c0.7,1.4,2.1,1.8,3.1,1.9c1.4,0.2,3-0.1,4.3-0.8L121.5,204.7z"/>
		<path class="st77" d="M111.5,223.5c0,0-9.2-2.9-12.6,0.5s6.7,14.4,8.6,17.3c1.9,2.9,2.4,8.6-2.4,9.6c-4.8,1-12,1.4-16.8,5.3
			c-4.8,3.8-14.9,9.1-17.3,9.1s-4.8-1.4-4.8-4.8c0-3.4-0.2-12.6,7-14.6c4.7-1.3,14.6-2.6,16.5-7.4c1.9-4.8-3.7-13-4.8-17.3
			c-0.7-2.8-0.7-12.2,8.1-13.2c3-0.3,3.4,0.8,3.9,0.2c0.1-0.1,0.3-0.7,0.2-0.9c-3.3-6-5.5-12.9-5.5-21.6c0-4.5,0.4-8.6,1-12.4
			c0,0.6,2.4,16.9,12.4,21.6c9.8,4.6,12.4,11.2,12.4,11.2C119.7,211.5,119.5,224.7,111.5,223.5z"/>
		<path d="M71.2,265.9c-2.7,0-5.5-1.7-5.5-5.5v-0.2c0-3.5,0-12.9,7.5-15.1c0.9-0.3,2-0.5,3.1-0.8c4.8-1.1,11.5-2.7,12.9-6.2
			c1.2-3-1-7.8-2.8-11.7c-0.9-1.9-1.7-3.7-2-5.1c-0.5-2.1-0.6-6.8,1.7-10.1c1.6-2.3,3.9-3.6,6.9-3.9c1.8-0.2,2.8,0.1,3.4,0.3
			c0,0,0.1,0,0.1,0c0,0,0-0.1,0-0.1c-3.7-6.8-5.5-13.9-5.5-21.8c0-4.4,0.4-8.6,1.1-12.5l1.4,0.2c0,0.1,2.2,16.3,12,20.9
			c9.9,4.6,12.7,11.3,12.8,11.6c1.6,4.2,1.9,12.5-1.2,16.3c-1.4,1.7-3.3,2.4-5.6,2.1l-0.1,0c-2.5-0.8-9.4-2.2-11.9,0.3
			c-2.3,2.3,3.9,10.1,6.8,13.9c0.8,1.1,1.5,1.9,1.9,2.5c1.3,1.9,2,5.1,1,7.6c-0.7,1.6-2,2.7-3.9,3c-0.9,0.2-1.9,0.3-3,0.5
			c-4.3,0.7-9.8,1.6-13.5,4.6C84.4,260.2,73.9,265.9,71.2,265.9z M94.2,208.6c-0.3,0-0.6,0-1,0.1c-2.6,0.3-4.6,1.4-5.9,3.3
			c-2.1,3-1.9,7.3-1.5,9c0.3,1.3,1.1,3,2,4.8c2,4.3,4.2,9.3,2.8,12.8c-1.7,4.2-8.7,5.9-13.9,7.1c-1.2,0.3-2.2,0.5-3.1,0.8
			c-6.5,1.8-6.5,10.2-6.5,13.7v0.2c0,3,2.1,4.1,4.1,4.1c2.1,0,12-5.1,16.8-9c4-3.2,9.6-4.2,14.2-4.9c1-0.2,2-0.3,2.9-0.5
			c1.4-0.3,2.3-1,2.8-2.2c0.8-2,0.2-4.7-0.9-6.3c-0.4-0.5-1-1.4-1.8-2.4c-5-6.4-9.6-12.8-6.7-15.7c3.5-3.5,12.4-0.9,13.2-0.7
			c1.8,0.3,3.2-0.3,4.2-1.6c2.8-3.4,2.4-11.1,1-14.9c0-0.1-2.7-6.4-12.1-10.8c-7.1-3.3-10.6-12.4-12-17.9c-0.3,2.6-0.4,5.3-0.4,8.1
			c0,7.8,1.7,14.6,5.4,21.3c0.3,0.6-0.2,1.5-0.3,1.7c-0.5,0.6-1.2,0.4-1.6,0.3C95.6,208.8,95.1,208.6,94.2,208.6z"/>
		<path class="st76" d="M144.5,227.8c-0.5,1.1-0.7,3.5-0.3,6.4c0,0,0,0.1-0.1,0.1c-3.3,0.1-6,0-7.7-0.2c-4.9-0.7-15-3.7-24.3-10.2
			c-0.1,0,0-0.1,0.1-0.1c8.1-3.3,4.6-14.6,5.1-16.5c0.1-0.4,0.2-0.8,0.4-1.2c0.8-1.4,2.7-2.3,9.2-0.7c7,1.6,8.5,1.7,8.8,1.7
			c0,0,0.1,0,0.1,0.1c0.2,3.7,1.4,7.6,4.6,9.3C146.4,219.7,145.9,224.5,144.5,227.8z"/>
		<path d="M141.7,235c-2.2,0-4.1-0.1-5.5-0.3c-4.6-0.6-14.9-3.5-24.6-10.3l-0.3-0.2l0.1-0.9l0.5-0.2c5.8-2.4,5.1-9.3,4.7-13.4
			c-0.1-1.3-0.2-2.1-0.1-2.7c0.1-0.4,0.2-0.9,0.5-1.3c1.2-2.1,4.2-2.4,9.9-1.1c7.2,1.7,8.5,1.7,8.6,1.7l0.3,0l0.5,0.4l0,0.3
			c0.2,2.5,0.9,6.9,4.2,8.7c7,3.8,5.9,9.4,4.6,12.4c-0.4,0.9-0.6,3.2-0.3,6l0,0.3l-0.4,0.5l-0.4,0C143.3,235,142.5,235,141.7,235z
			 M113.3,223.9c9.2,6.2,18.8,8.9,23.1,9.5c1.6,0.2,4.1,0.3,6.9,0.3c-0.2-2.5,0-4.8,0.5-6.1l0,0c2-4.6,0.6-8.1-4-10.6
			c-3.5-1.9-4.6-6-4.9-9.3c-1-0.1-3.3-0.5-8.4-1.7c-6.5-1.5-7.9-0.5-8.4,0.4c-0.2,0.3-0.3,0.7-0.4,1c-0.1,0.3,0,1.3,0.1,2.2
			C118.3,213.6,119,220.8,113.3,223.9z"/>
		<path class="st70" d="M156.9,99.8c0,0,2.6,4.1,4.7,6.2s4.1,4,5.2,5.2c0.9,1,2.9,4.3,3.5,5.8s1.7,4.4,2,9.2
			c0.2,4.9,2.2,6.8,3.9,7.6c1.7,0.9,3.8,1.2,5.8,1s7.7-1.3,8.3-1.4s3.9-0.9,5.5-2.3c1.6-1.4,1.5-1.6,1.5-1.6l-2.8-3.5l-4-4.5
			c0,0-4.2-4.6-5-6.6c-0.7-2-2.1-4.3-2.3-7.9c-0.2-3.5,0-3.9,0-4.5c0,0-9.4-1.3-12.9-1.7C166.8,100.3,159.6,99.7,156.9,99.8z"/>
		<path d="M180.7,135.6c-1.7,0-3.4-0.4-4.9-1.1c-2.6-1.3-4.1-4.1-4.3-8.2c-0.2-4.6-1.3-7.4-1.8-8.8l-0.1-0.2
			c-0.5-1.3-2.5-4.6-3.3-5.5c-0.8-0.8-1.9-2-3.3-3.3c-0.6-0.6-1.3-1.3-2-1.9c-2.1-2.1-4.7-6.1-4.8-6.3l-0.6-1l1.2-0.1
			c2.8-0.1,10.3,0.5,13.5,0.9c3.5,0.4,12.9,1.7,13,1.7l0.7,0.1l-0.1,1c-0.1,0.5-0.2,1.2,0,4.1c0.2,2.6,1,4.5,1.7,6.2
			c0.2,0.5,0.4,1,0.6,1.5c0.6,1.5,3.7,5.1,4.8,6.4l4,4.5l2.8,3.5c0.5,0.7-0.2,1.4-1.6,2.6c-1.6,1.4-4.6,2.1-5.6,2.4l-0.2,0
			c-0.7,0.2-6.4,1.2-8.4,1.5C181.6,135.6,181.2,135.6,180.7,135.6z M158.2,100.5c0.9,1.3,2.5,3.6,3.9,5c0.7,0.7,1.3,1.3,1.9,1.9
			c1.4,1.3,2.5,2.5,3.3,3.3c1,1.1,3,4.5,3.6,6l0.1,0.2c0.6,1.6,1.7,4.5,1.9,9.3c0.2,3.6,1.3,5.9,3.5,7c1.6,0.8,3.6,1.1,5.4,0.9
			c2-0.3,7.6-1.3,8.2-1.4l0.2-0.1c0.9-0.2,3.7-1,5.1-2.1c0.6-0.5,0.9-0.8,1.1-1l-2.5-3.1l-4-4.4c-0.4-0.5-4.3-4.8-5.1-6.9
			c-0.2-0.4-0.4-0.9-0.6-1.4c-0.7-1.7-1.6-3.8-1.8-6.7c-0.2-2.4-0.1-3.4,0-4c-2.2-0.3-9.3-1.3-12.2-1.6
			C167.3,101.1,161.4,100.5,158.2,100.5z"/>
		<path class="st0" d="M209.2,154.4c-4.6,21.3-27.4,10.6-30.2,6.3c-2.9-4.3,0.5-9.6-1-15.3c-1.4-5.8-1.8-11.6-1.8-11.6
			c3,1.6,7,0.8,9,0.5c3.4-0.5,11-1.9,12-5C202.2,135.9,206.9,144,209.2,154.4z"/>
		<path d="M195.1,168c-7.5,0-15.1-4.5-16.7-6.9c-1.7-2.6-1.4-5.5-1-8.5c0.3-2.3,0.6-4.6,0-7.1c-1.4-5.7-1.9-11.6-1.9-11.7l-0.1-1.3
			l1.1,0.6c2.6,1.4,6,0.8,8.1,0.5l0.5-0.1c6.5-0.9,10.8-2.7,11.4-4.5l0.4-1.3l0.8,1.1c6.2,8.1,10.2,16.4,12.1,25.4l0,0.1l0,0.1
			c-2,9.4-7.4,12.3-11.6,13.1C197.2,167.9,196.2,168,195.1,168z M177,134.9c0.2,2,0.7,6.2,1.7,10.3c0.7,2.7,0.4,5.2,0.1,7.6
			c-0.4,2.9-0.7,5.4,0.8,7.5c1.6,2.4,10.7,7.4,18.4,6c5.5-1,9-5,10.5-11.9c-1.9-8.4-5.5-16.2-11.2-23.8c-2.1,2.6-8.2,3.9-12,4.4
			l-0.5,0.1C182.8,135.4,179.7,135.9,177,134.9z"/>
		<path class="st3" d="M208.6,37c0,0,1.5,0.1,3.9-0.4c2.4-0.5,4.8-2.9,6.7-5.3c1.9-2.4,5.8-8.6,1-9.1c-4.8-0.5-4.3,0.5-10.1,1.4
			c-5.8,1-10.2-2.4-10.2-2.4S205.2,26.8,208.6,37z"/>
		<path d="M208.8,37.7c-0.1,0-0.2,0-0.2,0l-0.5,0l-0.2-0.5c-3.4-10-8.5-15.4-8.5-15.5l0.9-1c0,0,4.3,3.1,9.7,2.2
			c2.1-0.4,3.4-0.7,4.4-1c1.7-0.5,2.8-0.8,5.9-0.5c1.7,0.2,2.4,1,2.7,1.7c1.2,2.9-2.7,8-3.2,8.5c-2.6,3.3-5,5.1-7.1,5.5
			C210.7,37.7,209.3,37.7,208.8,37.7z M202.6,23.5c1.8,2.5,4.5,6.8,6.5,12.8c0.6,0,1.8-0.1,3.3-0.4c1.8-0.4,3.9-2.1,6.3-5
			c1.9-2.4,3.6-5.7,3-7.1c-0.1-0.2-0.3-0.7-1.6-0.9c-2.9-0.3-3.7-0.1-5.4,0.4c-1,0.3-2.3,0.7-4.5,1
			C207.2,24.9,204.5,24.2,202.6,23.5z"/>
		<path class="st74" d="M119.5,24.6c-0.5,0.8-1.2,1.3-2.1,1.5c-6.1,1.2-30.6,6.6-28.1,15.2c0,0,0,11.2,11.2,5.6c0,0,4-2,7.4-2.8
			c2-0.5,3.9,1,4,3.1c0.5,6.9,1.8,23.7,4,29.2c2.8,7,9.8,26.5,43.1,23.9c0.3,0,0.6,0,0.9,0c3.5,0.7,28.1,5.3,33.3,2.7
			c5.6-2.8,9.8-8.4,12.6-22.5c2.6-12.9,5.2-28.3,5.6-30.6c0-0.2,0.1-0.4,0.1-0.6c0.4-1.2,1.2-6.3-1.2-9.2c-0.2-0.3-0.4-0.5-0.5-0.8
			c-0.4-0.9-0.6-3.2-1.2-5.6c-1.4-6.5-9.8-20.5-30.9-27.6c-21.5-7.2-29.5-1.4-33.7,0C140,7.5,125.7,15.3,119.5,24.6z"/>
		<path d="M187.5,104.5c-9.1,0-24.1-2.8-27.7-3.5c-0.2,0-0.5-0.1-0.7,0c-33.1,2.6-40.7-16.6-43.6-23.9l-0.2-0.5
			c-2.2-5.6-3.6-22.4-4.1-29.4c-0.1-0.8-0.4-1.5-1.1-2c-0.6-0.5-1.3-0.6-2.1-0.4c-3.3,0.8-7.2,2.7-7.3,2.7c-3.8,1.9-6.8,2.2-8.9,0.8
			c-3-1.9-3.3-6.2-3.3-6.9c-0.4-1.4-0.1-2.8,0.7-4.1c4.1-6.7,22.4-10.7,28-11.8c0.7-0.1,1.3-0.5,1.7-1.2
			c6.1-9.2,20.5-17.2,24.9-18.7c0.5-0.2,1.1-0.4,1.8-0.7c4.7-2,13.4-5.6,32.3,0.7c21.5,7.2,29.9,21.5,31.4,28.1
			c0.2,1,0.4,1.9,0.5,2.8c0.2,1.2,0.4,2.3,0.6,2.8c0.1,0.2,0.2,0.4,0.4,0.7c2.6,3.1,1.9,8.3,1.3,9.9c-0.1,0.1-0.1,0.3-0.1,0.4
			c-0.3,1.7-2.9,17.5-5.6,30.6c-2.6,12.8-6.5,19.7-13,23C192.3,104.2,190.1,104.5,187.5,104.5z M159.3,99.5c0.3,0,0.5,0,0.7,0.1
			c10.3,2,28.7,4.8,32.8,2.8c4.3-2.2,9.2-6.5,12.3-22c2.6-13.1,5.3-28.8,5.6-30.6c0-0.2,0.1-0.4,0.2-0.7c0.4-1.1,1.1-5.9-1.1-8.5
			c-0.3-0.4-0.5-0.7-0.6-1c-0.3-0.6-0.5-1.7-0.7-3.1c-0.1-0.8-0.3-1.7-0.5-2.7c-1.4-6.3-9.5-20.1-30.4-27
			c-18.5-6.2-26.8-2.6-31.3-0.8c-0.7,0.3-1.3,0.6-1.9,0.8C140,8.2,126,16,120.1,25l0,0c-0.6,0.9-1.5,1.6-2.6,1.8
			c-11.1,2.2-24.1,6.3-27.1,11.2C89.8,39,89.7,40,90,41l0,0.2c0,0,0,4.3,2.6,5.9c1.7,1.1,4.3,0.8,7.6-0.9c0.2-0.1,4.1-2.1,7.6-2.8
			c1.1-0.3,2.3,0,3.2,0.7c1,0.7,1.6,1.8,1.6,3c0.5,6.9,1.8,23.6,4,29l0.2,0.5c3,7.6,10.1,25.4,42.2,23
			C159.1,99.5,159.2,99.5,159.3,99.5z"/>
		<path class="st70" d="M167.1,93.6c-8-4.1-19.3,3.3-20.7,6.1c-1.3,2.6-0.2,5.7-1.1,7.7c-1.4,3.2-6.3,1.6-14.1,1.6
			c-5.4,0-6.8,1.5-10,5.4c-3.3,4,5.7,7.3,2.5,10.5c-1.7,1.6-7.5-4.9-7.5-9.2c0.1-3.5,4.7-11,11.8-10.6c7.1,0.5,14.3-0.5,14.6-5.3
			c0.3-4.9,7.1-8.4,10.1-9.2c3.5-0.9,8.2-3.3,13.8-3.2c5.7,0.1,6.6,0.9,6.6,4.1C173.2,93.7,170.9,95.6,167.1,93.6z"/>
		<path d="M123.1,126c-0.3,0-0.7-0.1-1.1-0.2c-2.5-1.1-6.5-6.1-6.4-9.9c0-2.1,1.5-5.6,4.3-8.2c1.7-1.5,4.5-3.3,8.2-3.1
			c6.1,0.4,10.6-0.4,12.6-2.1c0.8-0.7,1.2-1.5,1.3-2.5c0.3-5.4,7.5-9,10.6-9.8c0.9-0.2,2-0.6,3.1-1c2.9-1,6.6-2.3,10.8-2.3
			c0.1,0,0.1,0,0.2,0c5.8,0.1,7.2,1,7.3,4.8c0,1.2-0.6,2.3-1.6,2.9c-0.8,0.5-2.6,1.1-5.4-0.3c-3.6-1.9-7.7-1.1-10.5-0.2
			c-4.6,1.5-8.5,4.5-9.2,6c-0.6,1.3-0.6,2.7-0.6,4.1c0,1.3,0,2.5-0.5,3.6c-1.2,2.8-4.5,2.6-9,2.3c-1.7-0.1-3.6-0.2-5.7-0.2
			c0,0-0.1,0-0.1,0c-4.9,0-6.2,1.2-9.4,5.1c-1.2,1.5-0.3,2.8,1.4,4.8c1.4,1.7,3.1,3.8,1.1,5.7C124,125.7,123.7,126,123.1,126z
			 M127.4,106c-2.9,0-5.2,1.5-6.5,2.8c-2.5,2.3-3.9,5.4-3.9,7.2c-0.1,3.1,3.5,7.7,5.6,8.6c0.1,0.1,0.6,0.2,0.7,0.1
			c1-1,0.4-1.9-1.2-3.8c-1.5-1.8-3.4-4.1-1.4-6.6c3.2-3.9,4.9-5.6,10.5-5.6c0,0,0.1,0,0.1,0c2.2,0,4.1,0.1,5.8,0.2
			c4.6,0.3,6.8,0.4,7.6-1.4c0.4-0.8,0.4-1.9,0.4-3.1c0-1.5,0-3.2,0.8-4.7c0.9-2,5.2-5.1,10-6.7c3.1-1,7.6-1.8,11.6,0.3
			c2.2,1.1,3.5,0.7,4.1,0.4c0.6-0.4,1-1,1-1.7c0-2.6-0.3-3.4-5.9-3.4c-4,0-7.4,1.1-10.5,2.2c-1.1,0.4-2.2,0.8-3.2,1
			c-3.2,0.8-9.3,4.2-9.6,8.6c-0.1,1.4-0.7,2.6-1.7,3.5c-2.9,2.6-9,2.8-13.6,2.5C127.8,106,127.6,106,127.4,106z"/>
		<path class="st70" d="M231.5,84.1c-0.3,2.8-0.6,5.7,0.9,8.5c1.5,3-2.5,5.4-6.4,6.2c-2.9,0.6-12.7-2.6-15.1-2.7
			c-1.9,0-4.5,2.4-6.2,1.6c-2.9-1.4-4.2-7.4-6.1-7.4c-1.9,0-1.9,1.8-3.3,0c0,0-2.4-5.8,2.8-5.5c5,0.3,4.9,9.2,8.3,9.5
			c4.2,0.3,3.9-4.5,8.7-0.9c2.8,2.1,11.1,2.4,12.7,0.7c1.7-1.7-0.3-2.3-0.2-6.2c0.1-2.1,1-2.8-2.4-7c-1.8-2.2-2.2-6.1,0.2-5.4
			C227.7,76.1,231.9,80.7,231.5,84.1z"/>
		<path d="M225.2,99.6c-2.2,0-5.8-0.9-9.1-1.7c-2.2-0.5-4.3-1-5.2-1.1c-0.7,0-1.5,0.4-2.4,0.8c-1.4,0.6-2.8,1.3-4.1,0.7
			c-1.7-0.8-2.8-2.9-3.8-4.6c-0.6-1.1-1.5-2.7-2-2.7c-0.5,0-0.9,0.2-1.2,0.4c-0.9,0.6-1.6,0.7-2.7-0.7l-0.1-0.2
			c-0.1-0.1-1.3-3.3,0-5.1c0.7-1,1.8-1.4,3.5-1.3c3.2,0.2,4.6,3.3,5.6,5.9c0.8,1.8,1.5,3.5,2.6,3.6c1.4,0.1,2.2-0.5,3.1-1.1
			c1.3-1,2.8-2.1,6,0.3c2.6,1.9,10.5,2.2,11.8,0.8c0.6-0.7,0.6-0.9,0.2-1.9c-0.3-0.9-0.7-2-0.6-3.9c0-0.4,0.1-0.7,0.1-1
			c0.2-1.3,0.3-2.3-2.4-5.6c-1.3-1.7-2.2-4.4-1.2-5.8c0.2-0.3,0.9-1,2.2-0.7c2.4,0.7,7,5.5,6.5,9.4l0,0c-0.3,2.5-0.6,5.4,0.8,8.2
			c0.5,1,0.5,2.1,0,3.1c-1.1,2.3-4.4,3.6-6.9,4.1C225.8,99.5,225.5,99.6,225.2,99.6z M210.8,95.4C210.9,95.4,210.9,95.4,210.8,95.4
			c1.1,0,3.2,0.5,5.6,1.1c3.5,0.8,7.8,1.9,9.4,1.6c2.8-0.5,5.2-1.9,5.9-3.3c0.3-0.6,0.3-1.2,0-1.8c-1.6-3.2-1.2-6.4-0.9-8.9
			c0.3-3-3.6-7.3-5.5-7.8c-0.5-0.1-0.6,0-0.7,0.1c-0.4,0.6-0.1,2.6,1.1,4.2c2.8,3.6,2.9,4.8,2.7,6.6c0,0.3-0.1,0.6-0.1,0.9
			c-0.1,1.6,0.3,2.6,0.5,3.4c0.4,1,0.7,2-0.5,3.3c-1.9,2-10.6,1.6-13.6-0.6c-2.4-1.8-3.2-1.2-4.4-0.3c-0.9,0.7-2,1.5-4,1.4
			c-2-0.1-2.9-2.2-3.8-4.5c-1-2.4-2.1-4.9-4.4-5c-1.1-0.1-1.9,0.2-2.3,0.7c-0.7,1-0.2,2.9,0.1,3.7c0.3,0.4,0.5,0.5,0.5,0.5
			c0,0,0.1-0.1,0.3-0.2c0.4-0.3,1-0.6,1.9-0.6c1.3,0,2.2,1.6,3.2,3.4c0.9,1.6,1.9,3.4,3.2,4.1c0.7,0.3,1.8-0.2,2.9-0.7
			C208.9,95.9,209.9,95.4,210.8,95.4z"/>
		<path class="st70" d="M143.5,33.2c-0.5,3.8-5.7-3.2-12.3,9.7c-0.2,0.4-0.6,0.6-1,0.5c-0.6-0.1-1.1-0.9-1.1-3
			c0-2.9,8.6-17.3,20.6-16.3C152.6,24.6,144,29.4,143.5,33.2z"/>
		<path d="M130.4,44.2c-0.1,0-0.2,0-0.3,0c-1.1-0.2-1.7-1.5-1.7-3.7c0-1.9,2.9-7.2,7.3-11.4c3.1-2.8,8-6.1,14-5.6
			c0.8,0.1,1.1,0.5,1.2,0.8c0.3,1-0.8,1.9-2.5,3.6c-1.7,1.6-4,3.8-4.2,5.5l0,0c-0.2,1.9-1.6,1.9-2.8,1.9c-2,0-5.4,0-9.5,8
			C131.6,43.8,131,44.2,130.4,44.2z M148.6,24.8c-5,0-9.2,2.8-11.8,5.3c-4.5,4.2-6.9,9.2-6.9,10.4c0,1.8,0.4,2.3,0.6,2.3
			c0.1,0,0.2-0.1,0.2-0.2c4.5-8.7,8.4-8.8,10.8-8.7c1.3,0,1.3,0,1.4-0.7c0.3-2.2,2.7-4.5,4.7-6.3c0.7-0.7,1.6-1.5,2-2
			C149.2,24.8,148.9,24.8,148.6,24.8z"/>
		<path class="st70" d="M205.3,31.3c0,0.5-0.5,1-1.4,0.5s-1.4-2.4-4.8-2.4s-3.8,1.4-5.8,2.4c0,0-3.4,1.9-2.4-1.9
			c1-3.8,2.4-4.8,3.8-5.3c1.4-0.5,5.3,0.5,7.2,2.4C203.9,28.9,205.3,30.8,205.3,31.3z"/>
		<path d="M191.8,33c-0.4,0-0.7-0.1-1.1-0.3c-1-0.8-0.6-2.4-0.5-2.9c1-4.2,2.7-5.2,4.3-5.8c1.8-0.6,5.8,0.5,7.9,2.6
			c0.1,0.1,3.6,3.6,3.6,4.8c0,0.5-0.2,0.9-0.6,1.2c-0.3,0.2-0.9,0.4-1.8-0.1c-0.4-0.2-0.7-0.5-1-0.8c-0.7-0.7-1.4-1.5-3.5-1.5
			c-2.1,0-2.9,0.6-3.9,1.3c-0.5,0.3-0.9,0.7-1.6,1C193.5,32.5,192.7,33,191.8,33z M195.7,25.2c-0.3,0-0.5,0-0.7,0.1
			c-1.2,0.4-2.5,1.1-3.4,4.8c-0.3,1-0.1,1.4,0,1.5c0.2,0.1,0.9-0.1,1.4-0.3c0.6-0.3,1-0.6,1.4-0.9c1.1-0.8,2.1-1.6,4.7-1.6
			c2.7,0,3.8,1.2,4.5,1.9c0.2,0.2,0.4,0.4,0.6,0.5c0.2,0.1,0.3,0.1,0.4,0.1c-0.2-0.5-1.3-2-3.1-3.8C200,26,197.2,25.2,195.7,25.2z"
			/>
		<path class="st39" d="M139.4,56.9c0,0,3.1-15.5,12.2-18.2c9.1-2.7,13.5-5.5,23.8-4.1c10.3,1.4,5.3,19,5.3,19s-1.5,9.3-1.4,13
			c0.1,3.7-5.9,14.6-20.1,13.1c-12.1-1.3-14.7-4.6-18.7-9.1c-1.5-1.6-2.3-3.8-2.2-6C138.6,62.4,138.8,59.5,139.4,56.9z"/>
		<path d="M162,80.7c-0.9,0-1.8-0.1-2.8-0.2c-12-1.3-15-4.7-18.8-8.9l-0.4-0.4c-1.6-1.8-2.5-4.2-2.4-6.6c0.1-2.1,0.4-5.1,0.9-7.9
			c0.1-0.7,3.3-16,12.8-18.7c2-0.6,3.8-1.2,5.5-1.7c5.8-1.9,10.5-3.5,18.7-2.4c2.3,0.3,4.1,1.4,5.4,3.3c3.7,5.6,0.7,16.2,0.6,16.7
			c0,0-1.4,9.2-1.3,12.8c0.1,2.2-1.6,6.1-4.9,9.1C172.7,78.1,168.4,80.7,162,80.7z M170.2,35.1c-4.9,0-8.4,1.2-12.9,2.7
			c-1.7,0.6-3.5,1.2-5.5,1.7c-8.6,2.5-11.6,17.4-11.7,17.6l0,0c-0.6,2.7-0.8,5.6-0.9,7.6c-0.1,2,0.6,4,2,5.5l0.4,0.4
			c3.7,4.1,6.4,7.1,17.8,8.4c7.4,0.8,12.1-1.9,14.8-4.4c3.1-2.9,4.5-6.4,4.4-7.9c-0.1-3.7,1.3-12.8,1.4-13.2
			c0-0.2,2.9-10.5-0.4-15.5c-1-1.5-2.4-2.3-4.3-2.6C173.4,35.2,171.8,35.1,170.2,35.1z"/>
		<path class="st39" d="M187,59.9c0,0-0.5-16.8,10.4-19.9c10.9-3.1,17.9,7.9,19.1,14.1s2.5,18.3-6.3,24.2
			C202.1,83.6,186.5,72.7,187,59.9z"/>
		<path d="M205.2,80.4c-2.5,0-5.1-0.8-7.8-2.3c-5.8-3.3-11.5-10.2-11.2-18.3c0-1-0.3-17.5,11-20.7c3.9-1.1,7.6-0.6,11.1,1.5
			c5.1,3.1,8.2,9,9,13.2c2.3,12.1,0,20.5-6.7,25C209.1,79.9,207.2,80.4,205.2,80.4z M201.1,40.2c-1.2,0-2.3,0.2-3.5,0.5
			c-10.2,2.9-9.8,19-9.8,19.2l0,0l0,0c-0.3,7.5,5,13.9,10.4,16.9c4.3,2.4,8.7,2.7,11.6,0.8c6.1-4.1,8.2-12,6-23.4
			c-0.7-4-3.8-9.4-8.3-12.2C205.4,40.8,203.3,40.2,201.1,40.2z"/>
		<path d="M208.9,59.5c0,4.7,0.3,7.4-5.3,8.5c-4.6,0.9-11-2.7-9.8-6.7c1.2-3.8,2.5-9.4,7.1-10C205.7,50.6,208.9,54.8,208.9,59.5z"/>
		<path d="M202.2,68.8c-2.9,0-6-1.3-7.8-3.3c-1.3-1.4-1.7-3-1.2-4.6l0.3-1c1.1-3.8,2.7-9,7.5-9.6c2.1-0.3,4.1,0.3,5.7,1.7
			c1.9,1.7,3.1,4.4,3.1,7.3l0,0.7c0,4.3,0,7.4-5.9,8.5C203.3,68.8,202.7,68.8,202.2,68.8z M201.9,52c-0.3,0-0.5,0-0.8,0.1
			c-3.8,0.5-5.1,4.9-6.2,8.5l-0.3,1c-0.4,1.3,0.3,2.4,0.9,3.1c1.8,2,5.3,3.1,8,2.6c4.6-0.9,4.6-2.8,4.6-7l0-0.7
			c0-2.4-0.9-4.7-2.5-6.1C204.6,52.4,203.3,52,201.9,52z"/>
		<path class="st39" d="M208.3,65.5c-2.4,1.7-4.1-0.7-4.8-3.7s1.8-4.5,3.8-3.9C209.2,58.5,212.1,63,208.3,65.5z"/>
		<path d="M206.8,66.9c-0.4,0-0.7-0.1-1-0.2c-1.9-0.7-2.7-3.2-3.1-4.7c-0.4-1.6,0-3,1-4c1-0.9,2.4-1.3,3.7-0.9
			c1.4,0.4,3.1,2.2,3.4,4.4c0.3,1.8-0.5,3.5-2.1,4.6h0C208,66.7,207.3,66.9,206.8,66.9z M206.4,58.6c-0.6,0-1.2,0.2-1.6,0.6
			c-0.6,0.6-0.8,1.4-0.6,2.5c0.5,1.9,1.3,3.3,2.1,3.6c0.4,0.2,0.9,0.1,1.5-0.3h0c1.1-0.8,1.6-1.8,1.4-3c-0.2-1.6-1.5-3-2.3-3.2
			C206.8,58.6,206.6,58.6,206.4,58.6z"/>
		<path d="M176.7,59.5c0.2,5.1-3.9,9.7-10.6,9.3c-5.4-0.3-10.2-5.9-8.4-10.1c2.5-5.8,7.5-10.8,12.6-9.3
			C175.5,51,176.4,51.2,176.7,59.5z"/>
		<path d="M166.9,69.6c-0.3,0-0.5,0-0.8,0c-3.2-0.2-6.5-2.1-8.3-5c-1.3-2.1-1.6-4.3-0.8-6.2c2.5-5.9,7.8-11.4,13.6-9.7
			c5.5,1.7,6.6,2.2,6.9,10.8c0.1,2.7-0.9,5.3-2.8,7.2C172.7,68.6,170,69.6,166.9,69.6z M168.6,50c-4.1,0-8,4.3-10.1,9
			c-0.6,1.4-0.4,3.1,0.7,4.7c1.5,2.4,4.3,4.1,7,4.3c3,0.2,5.6-0.7,7.4-2.5c1.6-1.6,2.5-3.7,2.4-6l0,0c-0.3-7.7-0.8-7.8-5.7-9.3
			C169.7,50,169.1,50,168.6,50z"/>
		<path class="st39" d="M174.3,66.3c-2.8,1.1-4.8-1.4-4.8-4.4s3.7-5.3,5.4-4.1C177.8,60,177.1,65.3,174.3,66.3z"/>
		<path d="M173,67.4c-0.8,0-1.5-0.2-2.1-0.7c-1.4-0.9-2.2-2.8-2.2-4.8c0-2.2,1.6-3.9,3.1-4.7c1.3-0.7,2.6-0.7,3.5,0
			c1.6,1.2,2.5,3.3,2.2,5.6c-0.3,2-1.4,3.7-2.9,4.3C174.1,67.3,173.5,67.4,173,67.4z M173.7,58.3c-0.4,0-0.8,0.1-1.2,0.3
			c-1.1,0.6-2.3,1.8-2.3,3.3c0,1.5,0.6,2.9,1.5,3.5c0.7,0.4,1.4,0.5,2.2,0.2c1-0.4,1.7-1.6,1.9-3c0.2-1.3-0.1-3.2-1.5-4.2
			C174.2,58.3,174,58.3,173.7,58.3z"/>
		<path class="st2" d="M165.6,160.3c0,0-8.4-6.6-18.8-4.9c0,0-7.4,1-11,3.8c0,0,11.2,2.9,11,5.7c0,0,0.7,1.5-1.2,5.7
			c-1.9,4.2,0.6,4.8,0.6,4.8s1.9,1.3,8.1,1.1C154.3,176.4,162.9,170,165.6,160.3z"/>
		<path d="M168.6,137.8l-1.3,0.6c0,0,1.2,2.9,0.4,12c-0.2,3-1.8,7.1-2.5,8.9c-2.3-1.6-9.6-6-18.5-4.5c-0.3,0-7.6,1-11.3,3.9
			l-1.1,0.9l1.4,0.4c5.1,1.3,10.5,3.6,10.4,5l0,0.3c0,0,0.5,1.4-1.2,5.1c-0.8,1.8-1,3.3-0.5,4.4c0.4,0.9,1.1,1.2,1.4,1.3
			c0.4,0.3,2.3,1.2,6.8,1.2c0.5,0,1.1,0,1.7,0l0.2,0l0.2-0.1c0.4-0.3,8.8-6.7,11.5-16.5c0.2-0.5,2.6-6.1,2.9-10.1
			C169.9,140.9,168.6,137.9,168.6,137.8z M154,175.7c-5.6,0.2-7.5-0.9-7.5-0.9l-0.2-0.1c0,0-0.4-0.1-0.6-0.6
			c-0.2-0.5-0.3-1.5,0.5-3.2c1.7-3.7,1.5-5.5,1.3-6.1c-0.1-2.7-6.4-4.9-10-5.9c3.6-2,9.3-2.8,9.4-2.8c8.7-1.4,16.1,3.3,17.8,4.5
			C162.2,168.9,155.2,174.8,154,175.7z"/>
		<path class="st78" d="M154.3,176.4c0,0-8.1,6.6-17.2,5.7s-9.4-10-9-12.2c0.3-2.2,0.1-5.8,7.8-10.8c0,0,8.8,0.1,13.6,3.3
			C154.6,165.9,154.7,170.3,154.3,176.4z"/>
		<path d="M138.8,182.9c-0.6,0-1.2,0-1.8-0.1c-3.1-0.3-5.6-1.6-7.3-3.8c-2.6-3.4-2.6-7.8-2.4-9.3c0-0.2,0.1-0.4,0.1-0.6
			c0.3-2.4,0.7-5.9,8-10.7l0.2-0.1l0.2,0c0.4,0,9,0.1,14,3.4c5.5,3.7,5.6,8.6,5.2,14.6l0,0.3l-0.2,0.2
			C154.4,177.2,147.3,182.9,138.8,182.9z M136,159.9c-6.6,4.3-6.9,7.4-7.2,9.6c0,0.2-0.1,0.4-0.1,0.6c-0.2,1.2-0.2,5.2,2.1,8.2
			c1.5,1.9,3.6,3,6.3,3.2c7.8,0.8,15.1-4.4,16.4-5.4c0.4-5.7,0.3-9.8-4.6-13C144.8,160.3,137.4,159.9,136,159.9z"/>
	</g>
</g>
</svg>
